<?xml version="1.0" encoding="UTF-8"?>
<!DOCTYPE svg PUBLIC "-//W3C//DTD SVG 1.1//EN" "http://www.w3.org/Graphics/SVG/1.1/DTD/svg11.dtd">
<!-- Creator: CorelDRAW 2020 (64-Bit) -->
<svg xmlns="http://www.w3.org/2000/svg" xml:space="preserve" width="31.75mm" height="31.75mm" version="1.1" style="shape-rendering:geometricPrecision; text-rendering:geometricPrecision; image-rendering:optimizeQuality; fill-rule:evenodd; clip-rule:evenodd"
viewBox="0 0 2330.47 2330.47"
 xmlns:xlink="http://www.w3.org/1999/xlink"
 xmlns:xodm="http://www.corel.com/coreldraw/odm/2003">
 <defs>
  <style type="text/css">
   <![CDATA[
    .fil1 {fill:black}
    .fil0 {fill:url(#id0)}
   ]]>
  </style>
  <linearGradient id="id0" gradientUnits="userSpaceOnUse" x1="-0" y1="1165.02" x2="2330.03" y2="1165.02">
   <stop offset="0" style="stop-opacity:1; stop-color:#B98128"/>
   <stop offset="0.329412" style="stop-opacity:1; stop-color:#FAE27B"/>
   <stop offset="0.521569" style="stop-opacity:1; stop-color:#FDF3AB"/>
   <stop offset="0.729412" style="stop-opacity:1; stop-color:#FAE27B"/>
   <stop offset="1" style="stop-opacity:1; stop-color:#B98128"/>
  </linearGradient>
 </defs>
 <g id="Слой_x0020_1">
  <metadata id="CorelCorpID_0Corel-Layer"/>
  <g id="Лого_x0020_GG.cdr">
   <circle class="fil0" cx="1165.23" cy="1165.23" r="1165.23"/>
   <g>
    <g>
     <path class="fil1" d="M291.25 892.27l32.21 -95.22 26.88 9.09 -2.39 7.1c-1.57,4.62 -2.22,7.96 -1.99,9.95 0.27,2.01 1.18,3.75 2.69,5.21 1.53,1.43 4.88,3.04 10.02,4.78l61.24 20.71 -9.67 28.6 -16.52 2.64c2.77,10.66 3.98,21.21 3.66,31.57 -0.32,10.36 -2.19,20.6 -5.61,30.71 -6.02,17.77 -15.84,32.5 -29.39,44.17 -13.56,11.67 -29.54,19.16 -47.95,22.39 -18.36,3.29 -37.2,1.64 -56.4,-4.86 -19.06,-6.44 -34.65,-16.4 -46.86,-29.92 -12.22,-13.49 -20.06,-29.26 -23.66,-47.32 -3.57,-18.03 -2.35,-35.89 3.63,-53.58 2.88,-8.53 6.86,-16.7 11.89,-24.49 5.01,-7.76 10.34,-14.08 15.96,-18.92l-6.93 -8.08 6.61 -19.55 70.47 4.26 -0.3 28.52c-17.08,3.99 -29.03,7.6 -35.9,10.96 -6.81,3.32 -12.78,7.77 -17.86,13.4 -5.13,5.59 -8.72,11.49 -10.83,17.73 -2.99,8.82 -3.2,17.93 -0.7,27.33 2.5,9.4 7.93,18.04 16.2,25.77 8.3,7.8 19.41,14.05 33.32,18.77 15.34,5.18 29.46,7.25 42.35,6.19 12.91,-1.09 23.41,-4.66 31.5,-10.69 8.1,-6.07 13.76,-13.83 16.97,-23.31 2.25,-6.66 3.07,-13.46 2.39,-20.38 -0.68,-6.91 -2.36,-12.05 -4.93,-15.41 -2.63,-3.39 -6.78,-6.02 -12.46,-7.93l-7.15 -2.42c-4.95,-1.68 -8.21,-2.4 -9.73,-2.17 -2.24,0.36 -4.04,1.28 -5.48,2.72 -1.39,1.45 -2.97,4.68 -4.68,9.73l-3.74 11.06 -26.87 -9.09zm64.22 -221.77c9.07,-14.14 19.72,-24.7 32,-31.65 12.27,-7.02 24.96,-10.22 38.09,-9.82 13.16,0.43 26.17,4.76 38.91,12.93 19.31,12.38 30.96,28.69 34.93,48.99 3.96,20.3 -0.81,40.96 -14.27,61.96 -13.75,21.43 -30.73,34.58 -50.95,39.47 -19.41,4.83 -38.98,0.95 -58.68,-11.67 -12.9,-8.28 -22.26,-18.22 -27.99,-29.78 -5.73,-11.58 -8.04,-24.47 -6.88,-38.67 1.15,-14.2 6.09,-28.13 14.83,-41.76zm27.59 16.79c-3.04,4.74 -4.5,10.09 -4.36,16.03 0.13,5.94 2.18,11.8 6.18,17.58 3.95,5.77 10.12,11.33 18.55,16.74 8.65,5.54 16.5,9.03 23.61,10.42 7.13,1.39 13.37,0.98 18.59,-1.23 5.24,-2.19 9.37,-5.64 12.41,-10.39 4.7,-7.33 5.67,-15.55 2.89,-24.74 -2.81,-9.15 -10.65,-17.88 -23.61,-26.19 -12.5,-8.01 -23.44,-11.63 -32.88,-10.81 -9.43,0.83 -16.57,5.05 -21.4,12.59zm50.48 -217.5l124.89 119.08c4.19,3.99 6.88,6.2 7.99,6.57 1.88,0.88 3.97,0.8 6.22,-0.33 1.44,-0.64 4.4,-3.3 8.88,-8l3.55 -3.71 20.53 19.58 -62.9 65.98 -20.54 -19.58 3.85 -4.04c4.07,-4.26 6.42,-7.23 7.01,-8.95 0.6,-1.73 0.59,-3.4 -0.01,-5.09 -0.68,-1.7 -3,-4.45 -7.08,-8.33l-95.17 -90.76 -15 15.74 -20.54 -19.58c11.28,-13.57 20.75,-29.63 28.46,-48.21l9.86 -10.34zm179.11 -144.64l99.1 139.35c3.91,5.5 6.51,8.65 7.82,9.51 1.31,0.79 2.74,1.07 4.26,0.87 1.51,-0.29 4.76,-2.17 9.64,-5.63l5.53 -3.94 16.79 23.62 -50.68 38.64 -8.89 -12.5c-3.9,10.41 -8.02,18.58 -12.32,24.62 -4.26,5.99 -9.26,11.02 -14.91,15.05 -9.23,6.55 -19.46,10.06 -30.73,10.61 -11.26,0.48 -22.86,-2.45 -34.74,-8.75 -11.89,-6.3 -22.11,-15.45 -30.62,-27.42 -8.62,-12.13 -13.94,-24.91 -15.96,-38.34 -1.99,-13.4 -0.71,-25.48 3.74,-36.25 4.46,-10.75 11.7,-19.66 21.62,-26.72 5.12,-3.65 10.48,-6.53 16.02,-8.62 5.59,-2.11 12.3,-3.62 20.22,-4.57l-20.47 -28.78 -17.7 12.6 -16.45 -23.13c9.26,-8.06 16.48,-15.03 21.65,-20.95 5.12,-5.91 10.26,-12.91 15.41,-20.96l11.68 -8.3zm62.33 168.89l-28.31 -39.81c-3.52,-4.97 -6.4,-8.22 -8.56,-9.78 -3.08,-2.27 -7.09,-3.3 -12.07,-3.08 -4.98,0.21 -9.58,1.81 -13.72,4.75 -4.35,3.08 -7.46,7.22 -9.31,12.42 -1.85,5.21 -1.96,11.22 -0.38,18.06 1.62,6.87 5.25,14.23 10.9,22.19 7.82,10.99 16.55,18.05 26.17,21.26 7.48,2.53 14.35,1.6 20.61,-2.86 2.71,-1.93 5.02,-4.25 6.83,-6.9 1.84,-2.72 4.48,-8.11 7.84,-16.24zm197.63 -117.46l26.74 10.17c-5.13,16.77 -11.94,30.39 -20.47,40.71 -8.51,10.36 -19.16,18.45 -31.86,24.17 -20.41,9.23 -40.7,10.11 -60.88,2.61 -20.21,-7.46 -34.7,-20.97 -43.55,-40.54 -5.81,-12.85 -7.99,-25.98 -6.54,-39.5 1.45,-13.52 6.4,-25.8 14.78,-36.82 8.43,-11.04 19.62,-19.74 33.69,-26.11 8.99,-4.06 17.73,-6.47 26.23,-7.17 8.51,-0.73 16.65,0.05 24.33,2.37 7.65,2.3 14.73,6.09 21.16,11.41 6.49,5.31 11.96,11.33 16.49,18.06 2.21,3.42 5.1,9.06 8.68,17l-90.5 40.9c5.31,11.24 12.79,18.89 22.39,22.94 9.64,4.1 19.19,3.99 28.54,-0.24 6.02,-2.72 11.76,-7.47 17.21,-14.23 5.42,-6.82 9.95,-15.38 13.55,-25.73zm-44.3 -26.8c-3.05,-5.04 -6.22,-8.62 -9.52,-10.78 -3.31,-2.19 -7.02,-3.45 -11.09,-3.81 -4.12,-0.3 -7.93,0.32 -11.53,1.96 -3.77,1.7 -6.98,4.24 -9.67,7.72 -2.64,3.41 -4.3,7.19 -4.97,11.36 -0.68,4.12 -0.21,8.82 1.38,14.06l45.4 -20.52zm144.67 -96.21l3.44 19.26c9.63,-9.38 18.12,-16.16 25.43,-20.22 7.33,-4.13 15.08,-6.88 23.25,-8.35 9.4,-1.67 18.08,-1.18 25.97,1.49 7.93,2.67 14.11,6.68 18.45,12.05 4.37,5.3 7.52,13.48 9.46,24.37l10.75 60.23c0.92,5.16 1.85,8.35 2.85,9.66 0.95,1.31 2.28,2.19 3.99,2.57 1.23,0.28 4.74,-0.09 10.53,-1.12l7.08 -1.26 4.98 27.92 -84.98 15.17 -4.98 -27.93c6.36,-1.24 9.96,-2.03 10.67,-2.36 2.3,-1.07 3.63,-2.5 4.15,-4.17 0.47,-1.67 0.27,-5.05 -0.64,-10.16l-9.45 -52.94c-1.23,-6.84 -2.75,-11.12 -4.54,-12.89 -2.94,-2.95 -6.91,-3.99 -11.94,-3.08 -4.17,0.74 -8.48,2.44 -12.9,5.12 -4.43,2.68 -10.14,7.58 -17.15,14.7l10.22 57.26c1.12,6.24 2.5,9.99 4.15,11.17 1.58,1.2 5.04,1.35 10.24,0.42l4.7 -0.84 4.99 27.94 -84.4 15.06 -4.99 -27.93 4.21 -0.75c6.64,-1.18 10.69,-2.22 12.18,-3.05 1.48,-0.87 2.53,-2.13 3.07,-3.71 0.59,-1.59 0.48,-4.48 -0.29,-8.73l-11.99 -67.21 -21.39 3.82 -4.99 -27.93c16.95,-5.27 32.45,-12.33 46.46,-21.17l13.42 -2.39zm411.37 50.39l97.94 22.6 -6.38 27.66 -7.3 -1.69c-4.76,-1.1 -8.14,-1.42 -10.11,-0.99 -1.96,0.48 -3.6,1.55 -4.9,3.21 -1.27,1.67 -2.53,5.15 -3.76,10.44l-14.54 63 -29.42 -6.8 -4.26 -16.17c-10.33,3.82 -20.71,6.07 -31.05,6.78 -10.33,0.7 -20.71,-0.14 -31.11,-2.53 -18.28,-4.23 -33.92,-12.53 -46.87,-24.87 -12.96,-12.33 -22.01,-27.48 -27.05,-45.49 -5.09,-17.95 -5.32,-36.85 -0.76,-56.6 4.52,-19.61 12.87,-36.11 25.13,-49.6 12.2,-13.5 27.11,-22.86 44.72,-28.24 17.6,-5.34 35.49,-5.91 53.68,-1.72 8.77,2.03 17.29,5.18 25.56,9.4 8.21,4.23 15.03,8.9 20.42,14.01l7.34 -7.69 20.1 4.63 2.77 70.55 -28.41 2.53c-5.67,-16.6 -10.44,-28.13 -14.47,-34.64 -3.99,-6.44 -9.01,-11.94 -15.11,-16.45 -6.07,-4.54 -12.3,-7.52 -18.72,-9.01 -9.08,-2.09 -18.17,-1.4 -27.27,2.02 -9.09,3.42 -17.15,9.67 -24.03,18.67 -6.94,9.04 -12.06,20.71 -15.36,35.03 -3.65,15.79 -4.29,30.04 -1.97,42.76 2.38,12.73 6.97,22.83 13.77,30.28 6.85,7.46 15.12,12.32 24.88,14.58 6.86,1.58 13.7,1.72 20.52,0.34 6.82,-1.37 11.75,-3.54 14.86,-6.43 3.11,-2.95 5.31,-7.34 6.65,-13.18l1.7 -7.36c1.18,-5.09 1.59,-8.41 1.21,-9.89 -0.59,-2.2 -1.68,-3.9 -3.25,-5.2 -1.57,-1.24 -4.95,-2.48 -10.14,-3.68l-11.38 -2.63 6.39 -27.65zm233.55 -27.33l-71.07 157.24c-2.38,5.27 -3.57,8.55 -3.55,9.72 -0.22,2.06 0.56,4 2.36,5.75 1.08,1.15 4.58,3.07 10.49,5.75l4.68 2.11 -11.69 25.86 -83.07 -37.55 11.69 -25.85 5.07 2.3c5.37,2.43 8.95,3.66 10.78,3.66 1.82,-0.01 3.39,-0.56 4.79,-1.7 1.37,-1.2 3.21,-4.29 5.53,-9.42l54.16 -119.84 -19.8 -8.95 11.68 -25.85c16.54,6.15 34.84,9.78 54.91,10.91l13.02 5.89zm98.58 137.15c13.7,9.74 23.74,20.89 30.09,33.49 6.42,12.59 9.01,25.42 7.98,38.51 -1.07,13.13 -6.02,25.9 -14.79,38.26 -13.3,18.69 -30.15,29.54 -50.6,32.53 -20.47,2.97 -40.88,-2.77 -61.22,-17.23 -20.74,-14.75 -33.07,-32.33 -36.98,-52.78 -3.88,-19.61 0.92,-38.98 14.47,-58.04 8.9,-12.51 19.27,-21.37 31.09,-26.53 11.84,-5.17 24.83,-6.86 38.96,-5.03 14.12,1.83 27.8,7.44 40.99,16.82zm-18.1 26.76c-4.59,-3.27 -9.86,-4.98 -15.8,-5.13 -5.93,-0.15 -11.88,1.61 -17.85,5.32 -5.95,3.68 -11.8,9.58 -17.61,17.73 -5.95,8.37 -9.81,16.05 -11.55,23.09 -1.72,7.04 -1.61,13.3 0.33,18.62 1.95,5.34 5.2,9.63 9.79,12.9 7.09,5.04 15.25,6.41 24.56,4.07 9.28,-2.36 18.39,-9.77 27.31,-22.32 8.6,-12.09 12.73,-22.86 12.37,-32.32 -0.37,-9.46 -4.24,-16.79 -11.55,-21.97zm186.65 131.73l51.38 59.32 -21.44 18.57c-4.4,-4.92 -7.08,-7.71 -8,-8.32 -1.46,-1 -3.49,-1.49 -6.12,-1.68 -2.58,-0.15 -6.02,0.34 -10.2,1.51l-111.59 32.75 -25.7 -29.67 49.58 -109.41c1.04,-2.5 1.64,-5.02 1.73,-7.62 0.07,-2 -0.34,-3.85 -1.23,-5.4 -0.48,-1.18 -2.7,-4.04 -6.66,-8.61l21.44 -18.58 59.09 68.22 -21.45 18.58 -3.05 -3.52c-3.79,-4.38 -6.47,-6.79 -8.01,-7.24 -2.17,-0.67 -3.89,-0.36 -5.31,0.86 -1.09,0.95 -2.41,2.97 -3.99,5.99l-27.86 54.28 58.32 -19.03c3.4,-1.07 5.64,-2.16 6.83,-3.19 1.48,-1.28 1.96,-3.03 1.34,-5.22 -0.45,-1.73 -2.44,-4.66 -6,-8.77l-4.55 -5.26 21.45 -18.56zm59.43 254.88l-7.51 27.61c-17.21,-3.46 -31.42,-8.92 -42.52,-16.41 -11.13,-7.47 -20.22,-17.29 -27.16,-29.37 -11.16,-19.4 -14.03,-39.52 -8.53,-60.34 5.48,-20.84 17.5,-36.58 36.11,-47.28 12.21,-7.02 25.08,-10.48 38.67,-10.36 13.61,0.14 26.31,3.85 38.09,11.13 11.81,7.31 21.57,17.61 29.26,31 4.91,8.54 8.16,17.01 9.68,25.4 1.57,8.4 1.58,16.57 0.01,24.44 -1.53,7.84 -4.63,15.26 -9.29,22.18 -4.66,6.97 -10.11,13.01 -16.37,18.17 -3.19,2.52 -8.54,5.95 -16.07,10.29l-49.52 -86.08c-10.67,6.38 -17.56,14.57 -20.65,24.53 -3.14,9.99 -2.09,19.48 3.02,28.38 3.3,5.72 8.58,10.97 15.85,15.73 7.3,4.73 16.27,8.4 26.92,10.98zm22.36 -46.7c4.71,-3.52 7.98,-7.02 9.8,-10.51 1.87,-3.51 2.75,-7.33 2.71,-11.41 -0.1,-4.13 -1.09,-7.85 -3.07,-11.3 -2.06,-3.57 -4.9,-6.53 -8.62,-8.85 -3.66,-2.3 -7.58,-3.6 -11.79,-3.85 -4.16,-0.26 -8.79,0.66 -13.86,2.75l24.83 43.17zm116.98 168.03l5.26 18.52 -36.19 22.69 -18.38 -23.66c6.69,-7.38 11.26,-15.59 13.73,-24.6 2.45,-9.01 2.61,-17.32 0.46,-24.87 -1.42,-4.99 -3.3,-8.48 -5.7,-10.47 -2.34,-2 -4.72,-2.64 -7.05,-1.97 -1.93,0.54 -3.53,1.94 -4.67,4.14 -1.2,2.23 -1.96,6.36 -2.25,12.35l-2.83 42.87c-0.46,7.6 -1.68,15.06 -3.56,22.45 -1.87,7.39 -5.03,13.41 -9.46,18.06 -4.43,4.66 -10.22,8.02 -17.38,10.06 -12.77,3.63 -24.71,1.74 -35.68,-5.75 -12.9,-8.79 -21.78,-21.79 -26.66,-38.98 -4.18,-14.72 -4.14,-28.58 0.06,-41.59l-8.92 -1.76 -5.34 -18.83 41.27 -30.54 18.86 23.51c-8.51,9.62 -14.29,20.21 -17.45,31.68 -3.19,11.47 -3.57,21.31 -1.24,29.53 1.45,5.09 3.82,9.01 7.18,11.82 2.64,2.13 5.24,2.8 7.81,2.07 2.17,-0.61 3.91,-2.21 5.31,-4.85 1.41,-2.6 2.34,-7.77 2.83,-15.5l1.95 -33.6c1.12,-18.57 4.2,-31.83 9.18,-39.84 5.05,-8.03 12.17,-13.34 21.41,-15.96 11.86,-3.38 23.17,-1.46 34.01,5.75 12.34,8.26 20.74,20.38 25.26,36.29 4.03,14.19 4.32,27.17 0.86,39.09l7.34 1.89z"/>
     <g>
      <path class="fil1" d="M1029.77 1808.89c-17.27,-4.13 -67.76,-11.93 -112.17,-17.36 -62.18,-7.6 -88.7,-15.32 -115.25,-33.57 -43.13,-29.66 -81.11,-75.08 -104.9,-125.44 -16.06,-33.99 -17.19,-45.1 -9.07,-88.81 10.01,-53.9 -9.29,-214.92 18.32,-38.51 2.65,16.92 2.18,18.65 13.4,9.37 13.14,-10.85 13.12,-20.23 -0.21,-111.69 -3.74,-25.74 -3.35,-26.09 10.03,-8.93 7.67,9.82 17.36,16.97 21.54,15.88 4.18,-1.09 10.47,28.49 13.98,65.75 4.97,52.85 3.68,69.39 -5.86,75.27 -7.93,4.88 -15.06,2.49 -20.3,-6.81 -6.97,-12.39 -9.69,-11.42 -20,7.1 -6.57,11.8 -12.08,27.79 -12.26,35.55 -0.44,19.63 53.18,98.24 65.71,96.32 5.64,-0.87 32.47,8.71 59.61,21.29 68.08,31.55 90.78,37.68 85.08,22.95 -3.56,-9.2 8.6,-10.97 56.14,-8.18 39.78,2.33 53.13,5.51 38.74,9.22 -19.72,5.08 -17.88,6.86 17.95,17.45 21.95,6.49 44.08,15.17 49.19,19.3 10.06,8.13 66.99,-31.26 66.99,-46.36 0,-4.91 -6.35,-2.61 -14.1,5.11 -7.76,7.72 -20.63,14.04 -28.6,14.04 -11.07,0 -8.79,-5.94 9.62,-25.06 24.25,-25.19 32.79,-64.26 14.04,-64.26 -7.25,0 -7.36,-3.25 -0.37,-11.63 16.17,-19.39 2.07,-48.06 -28.46,-57.83 -22.34,-7.16 -24.21,-9.29 -8.74,-10.01 19.85,-0.92 39.44,-18.78 20.6,-18.78 -5.59,0 -8.79,-7.03 -7.1,-15.63 1.72,-8.82 -7.77,-24.74 -21.78,-36.52 -32.67,-27.47 -31.53,-38.55 2.76,-26.66 41.24,14.31 47.84,1.75 45.9,-87.56 -1.03,-47.38 3.53,-94.68 11.77,-122.3 17.2,-57.65 17.66,-54.84 -11.24,-68.23 -16.68,-7.73 -62.48,-10.95 -141.34,-9.95l-116.66 1.5 -53.16 50.93 -109.8 120.02 114.29 -134.98 57.63 -65.89 57.85 11.98c52.88,10.96 102.34,11.35 98.36,4.92 -3.95,-6.35 15.37,2.8 62.19,-6.13l58.74 21.79 20.96 -101.73c6.43,-36.85 10.64,-81.06 9.35,-98.25 -1.46,-19.5 2.72,-35.19 11.11,-41.7 7.4,-5.74 10.14,-13.72 6.11,-17.73 -4.03,-4.02 -14.61,2.3 -23.5,14.05 -15.81,20.86 -8.91,2.66 -95.57,-3.87 -48.76,-3.67 -106.62,11.23 -117.25,10.45 -10.64,-0.77 -17.47,-4.42 -15.18,-8.1 2.29,-3.68 -0.36,-6.69 -5.87,-6.69 -5.52,0 -7.73,-3.72 -4.91,-8.26 2.83,-4.54 -1.99,-10.44 -10.69,-13.12 -8.7,-2.67 0.34,-3.02 20.08,-0.78 19.74,2.25 47.01,4.13 60.58,4.18 84.01,-7.93 92.73,32.3 88.98,3.83 0.12,-12.96 16.53,-6.26 43.38,-12.66 5.8,8.93 8.75,9.67 8.84,2.23 0.1,-6.14 6.43,-11.16 14.13,-11.16 7.69,0 11.49,4.02 8.44,8.93 -3.12,5.02 4.03,8.93 16.33,8.93 24.4,0 47.01,40.4 43.86,78.33 -3.6,43.31 11.43,54.74 71.59,54.45 30.67,-0.14 50.28,-3.39 43.95,-7.28 -7.89,-4.85 -4.23,-8.82 11.88,-12.84 20.11,-5.03 53.61,-6.32 54.94,-38.97 3.21,-78.5 -30.5,-149.28 -37.57,-142.24 -3.24,3.23 -11.13,1.56 -17.51,-3.71 -6.66,-5.51 -20.41,-6.75 -32.24,-2.91 -11.34,3.68 -29.37,7.15 -40.09,7.7 -20.9,1.09 -55.35,-207.47 -55.93,-259.64l-0.2 -17.34 30.66 165.82c6.98,31.94 15.65,67.1 15.88,78.16 0.43,20.67 10.31,26.92 20.03,11.25 3.02,-4.86 0.7,-33.12 -5.18,-62.79 -5.86,-29.68 -8.51,-56.11 -5.87,-58.73 2.64,-2.63 9.79,23.11 15.91,57.17 10.11,56.29 12.85,61.51 30.09,57.18 10.43,-2.61 20.98,-7.58 23.45,-11.03 2.47,-3.45 13.24,-9 23.95,-12.32 24.14,-7.49 31.85,12.09 34.81,88.49 1.5,38.43 9.98,70 29.98,111.64 15.34,31.94 27.9,67.51 27.9,79.06 0.01,13.34 20.47,43.1 56.09,81.57 126.89,137.03 166.33,257.09 110.44,336.2 -11.94,16.91 -34.97,39.24 -21.89,72.38 -25.2,73.47 -29.02,51.9 -83.37,114.14 -12.29,14.07 -59.25,35.06 -106.14,37.36 -67.81,3.33 -96.42,0.68 -139.86,-12.99l-54.6 -17.18 -10.22 38.01c-11.95,44.47 -40.82,67.89 -102.17,82.88 -47.09,11.5 -52.58,11.55 -96.98,0.97l0.01 0zm456.38 -128.63c27.94,0.56 81.16,-81.46 41.9,-49.8 -15.5,12.8 -18.88,-0.01 -3.92,-14.89 5.99,-5.96 6.45,-11.74 1.2,-14.97 -4.7,-2.89 -15.78,2.68 -24.61,12.39 -19.52,21.45 -38.42,23.77 -21.1,2.58 10.95,-13.41 10.33,-14.28 -5.64,-7.92 -9.87,3.93 -26.02,8.98 -35.9,11.22 -17.15,3.89 -17.21,3.6 -1.17,-6.52 12.54,-7.91 13.95,-12.34 5.55,-17.51 -7.99,-4.91 -5.71,-8.65 7.9,-12.96 24.06,-7.6 24.6,-19.2 1.19,-25.29 -27.52,-7.16 -21.32,-24.21 8.8,-24.21 21.29,0 27.94,-4.72 32.58,-23.1 7.19,-28.5 -22.51,-72.13 -46.12,-67.76 -8.68,1.61 -18.39,-1.27 -21.57,-6.39 -3.88,-6.25 -13.64,-5.26 -29.63,2.99 -16.31,8.42 -24.88,9.23 -27.11,2.58 -2.04,-6.08 -8.08,-6.77 -16.11,-1.83 -7.07,4.35 -26.87,8.51 -44,9.25l-31.14 1.34 30.73 -25.53c16.9,-14.04 40.3,-25.54 52.01,-25.54 24.42,0 22.83,-16.26 -2.98,-30.62 -19.52,-10.85 -40.37,-34.56 -35.06,-39.86 1.95,-1.94 10.39,2.08 18.77,8.92 13.66,11.15 14.69,10.36 10.03,-7.66 -5.73,-22.14 1.63,-25.92 18.25,-9.38 8.38,8.34 11.04,2.88 11.99,-24.56 0.8,-23.1 2.5,-27.57 4.91,-12.95 5.73,34.78 22.06,71.45 31.81,71.45 4.87,0 6.96,-5.02 4.64,-11.16 -2.3,-6.14 -1.01,-19.2 2.9,-29.03 6.44,-16.21 7.19,-15.8 8.02,4.47 0.9,21.95 1.16,22.03 15.13,4.46 13.78,-17.32 14.09,-17.11 9.94,6.69 -5.34,30.63 4.31,31.69 20.16,2.24 6.6,-12.28 14.8,-22.34 18.22,-22.34 3.42,0 4.28,10.06 1.92,22.34 -2.76,14.35 -0.21,22.33 7.13,22.33 7.62,0 6.01,5.93 -4.84,17.87 -15.81,17.4 -15.68,17.87 5.34,18 13.82,0.09 17.61,2.65 10.54,7.12 -7.63,4.82 -2.09,12.28 17.95,24.19l28.99 17.22 -24.03 4.7 -24.02 4.69 22.37 25.74 40.91 67.45 30.21 -45.37c36.2,-54.33 36.52,-98.3 19.02,-153.52 -14.93,-47.12 -37.71,-113.46 -58.81,-113.47 -6.44,0 -30.19,-15.31 -49.93,-48.17 -22.1,-36.79 -49.1,-87.09 -73.97,-104.93 -39.34,-28.22 -92.65,-24.35 -92.65,-8.29 0,4.38 -90.08,16.63 -109.57,24.39 -45.13,17.98 -43.56,34.61 -42.71,101.42 0.44,34.94 -28.11,89.23 -42.93,134.12 -20.06,60.72 -9.98,166.3 -1.06,201.57 5.57,22 21.22,53.11 35.6,77.38 25.48,43.01 64.69,41.4 91.83,63.82 7.34,6.06 36.71,6.76 62.44,15.71 50.51,17.56 99.71,15.77 139.71,-5.1l0.01 0zm-95.73 -645.23c-6.48,-2.58 -14.22,-2.26 -17.21,0.7 -2.98,2.97 2.32,5.08 11.78,4.69 10.46,-0.43 12.58,-2.54 5.42,-5.39l0 0zm-700.58 384.74c-0.86,-29.2 5.4,-45.11 30.74,-78.15 39.8,-51.87 47.56,-53.81 14.14,-3.52 -13.88,20.88 -29.41,56.04 -34.52,78.15l-9.28 40.19 -1.08 -36.68zm188.72 -305.79c-1.76,-159.96 19.05,-133.82 5.03,-8.65 -1.49,13.37 10.45,25.41 18.85,27.15 11.79,2.45 11.11,31.11 -4.58,35.39 -18.42,5.02 -20.52,-24.11 -19.3,-53.89l0 0zm3.57 -117.51c7.46,-70.36 50.93,-104.71 67.93,-72.81l9.66 18.13 -37.64 7.23c-21.7,4.16 -22.5,-3.38 -24.13,40.22 -0.92,24.99 -6.25,49.9 -11.82,55.36 -7.52,7.36 -8.55,-5.04 -3.99,-48.13l0 -0.01zm197.78 -57.01c5.25,-14.98 107.13,-299.86 108.59,-298.37 4.87,47.53 -84.45,300.73 -108.59,298.37zm55.35 -27.32c0,-7.38 15.91,-53.22 20.15,-63.04 4.86,-11.26 24.29,-73.7 24.29,-65.25 0,7.36 -20.05,82.22 -24.29,92.05 -4.87,11.26 -20.15,44.69 -20.15,36.25l0 0zm87.45 -36.57c14.81,-6.75 63.38,-34.26 70.78,-34.1 7.41,0.15 -31.06,27.8 -48.34,34.42 -43.1,16.53 -175.71,61.6 -22.44,-0.32l0 0zm-57.52 -53.27c-0.38,-4.92 11.41,-54.7 26.17,-110.61 30.17,-114.17 32.35,-131.53 12.47,-99.28 -7.57,12.28 -59.95,170.03 -57.3,161.44 6.58,-21.32 45.21,-198.45 32.61,-190.94 -5.65,-5.15 -37.89,-34.04 -31.11,-32.47 6.77,-8.31 45.21,21.8 39.45,26.34 -12.27,9.67 30.68,-23.11 27.22,-32.09 -2.99,-7.77 -5.45,-19.05 -5.45,-25.07 0,-6.03 -11.11,-15.38 -24.68,-20.82l-24.68 -9.87 30.83 1.45c29.98,1.42 30.87,0.46 32.52,-34.28 0.92,-19.65 -2.33,-40.75 -7.25,-46.9 -19.26,-24.08 6.61,-9.51 30.61,17.24 28.35,31.61 25.21,31.14 16.51,51.98 -27.92,66.9 -8.87,7.43 -9.12,-13.4 -0.35,-23.12 -1.7,-24.57 -9.86,-10.62 -21.53,36.85 22.23,57.88 56.4,27.1 9.03,-8.13 16.42,-10.52 16.42,-5.3 0,5.22 56.06,-6.19 67.16,-8.45 11.11,-2.27 -44.95,18.96 -67.16,30.29 -22.22,11.32 -41.73,17.56 -43.38,13.88 -1.64,-3.68 -11.74,-6.57 -22.43,-6.42 -19.32,0.28 6.92,-14.82 24.75,-0.78 12.43,9.79 -13.12,29.24 -20.9,32.14 -6.17,2.3 -9.84,13.43 -9.84,23.06 0,9.62 -7.88,42.44 -17.5,72.95 -9.62,30.5 -27.46,87.6 -39.64,126.91 -12.18,39.3 -22.45,67.43 -22.83,62.52l0 0zm117.61 -151.84c-0.18,-14.74 -3.85,-43.95 -1.39,-37.91 2.46,6.05 17.81,88.57 15.52,97.26 -2.27,8.69 -13.95,-44.61 -14.14,-59.35l0 0zm-10.01 -43.92c-0.39,-9.42 -10.7,-107.26 -7.72,-104.29 2.98,2.97 28.17,158.51 25.58,164.95 -2.87,7.13 -17.43,-50.26 -17.86,-60.67l0 0zm-126.34 -76.15c0,-12.96 61.31,-47.63 69.09,-39.89 3.13,3.12 -16.81,12.58 -22.38,12.58 -5.57,0 -18.35,8.79 -28.42,19.55 -10.06,10.75 -18.29,13.48 -18.29,7.76l0 0zm40.89 -82.88c-17.75,-25.21 -17.68,-43.65 0.22,-65.52 25.14,-11.52 57.73,4.73 7.96,0.52 -14.75,42.27 -14.37,48.23 3.89,59.59 23.17,16.93 41.7,47.57 10.36,25.26 -3.79,-2.7 -14.75,-8.93 -22.43,-19.85l0 0zm196.92 -4.31c32.71,-17.63 8.89,-39.16 -24.87,-12.5 -72.2,57.02 -52.39,24.7 -18.47,-6.42 23.34,-17.78 74.74,-14.8 74.74,3.11 0,7.49 -10.36,17.54 -23.02,22.33 -34.58,13.09 -38.75,9.85 -8.39,-6.52l0 0z"/>
      <path class="fil1" d="M405.99 1694.22l13.62 13.87c-5.64,5.32 -8.7,11.19 -9.2,17.59 -0.48,6.39 1.84,13.21 6.94,20.42 5.17,7.28 10.48,11.63 15.96,13.07 5.42,1.43 10.17,0.73 14.15,-2.11 3.57,-2.53 5.26,-6.13 5.07,-10.72 -0.18,-3.21 -2.24,-9.87 -6.13,-20.01 -5.31,-13.64 -8.48,-23.44 -9.54,-29.46 -1.01,-6 -0.48,-11.47 1.67,-16.47 2.1,-4.96 5.44,-9.09 10,-12.33 4.17,-2.96 8.69,-4.72 13.57,-5.34 4.9,-0.59 9.67,-0.1 14.33,1.5 3.55,1.19 7.46,3.46 11.71,6.8 4.3,3.37 8.14,7.45 11.58,12.31 5.2,7.32 8.71,14.48 10.5,21.51 1.84,7.03 1.85,13.16 0.12,18.35 -1.77,5.19 -5.29,10.45 -10.65,15.74l-13.15 -13.95c4.37,-4.13 6.73,-8.87 7.08,-14.17 0.34,-5.29 -1.67,-10.98 -6.03,-17.14 -5.14,-7.23 -10.02,-11.57 -14.61,-12.95 -4.59,-1.39 -8.53,-0.95 -11.74,1.34 -2.03,1.45 -3.45,3.38 -4.18,5.85 -0.77,2.49 -0.75,5.5 0.1,9.04 0.53,2 2.47,7.59 5.85,16.82 4.96,13.27 8.04,22.81 9.29,28.59 1.26,5.78 0.93,11.24 -0.87,16.31 -1.82,5.14 -5.42,9.59 -10.82,13.42 -5.26,3.73 -11.29,5.72 -18.12,5.92 -6.85,0.21 -13.59,-1.68 -20.25,-5.65 -6.68,-4.01 -12.6,-9.69 -17.8,-17.01 -8.6,-12.12 -12.67,-23.17 -12.17,-33.09 0.53,-9.94 5.1,-19.27 13.71,-28.04zm177.59 168.74c12.79,-16.84 26.96,-25.76 42.53,-26.72 12.93,-0.8 25.07,3.1 36.35,11.67 12.51,9.51 19.64,21.4 21.38,35.64 1.72,14.2 -2.9,28.57 -13.87,43.01 -8.9,11.71 -17.64,19.57 -26.26,23.61 -8.61,4.04 -17.7,5.36 -27.25,3.96 -9.54,-1.38 -18.3,-5.12 -26.23,-11.14 -12.76,-9.7 -19.98,-21.61 -21.65,-35.77 -1.67,-14.16 3.35,-28.91 15,-44.26zm15.8 12.05c-8.86,11.66 -12.94,22.32 -12.22,31.97 0.71,9.69 4.93,17.47 12.68,23.36 7.68,5.84 16.27,7.77 25.81,5.85 9.52,-1.97 18.82,-8.9 27.87,-20.82 8.54,-11.24 12.45,-21.73 11.71,-31.39 -0.72,-9.7 -4.9,-17.45 -12.52,-23.23 -7.76,-5.89 -16.35,-7.9 -25.87,-6.02 -9.48,1.89 -18.62,8.65 -27.47,20.28zm255.08 207.91l6.35 -15.8c-13.09,8.72 -26.7,10.23 -40.86,4.54 -6.25,-2.52 -11.6,-6.06 -16.07,-10.63 -4.45,-4.6 -7.27,-9.23 -8.44,-13.91 -1.16,-4.7 -1.22,-9.88 -0.16,-15.56 0.71,-3.84 2.58,-9.58 5.66,-17.23l26.44 -65.77 18.03 7.25 -23.64 58.81c-3.77,9.39 -5.96,15.88 -6.55,19.41 -0.78,5.2 0.13,9.84 2.73,14.03 2.57,4.16 6.53,7.33 11.92,9.51 5.39,2.17 10.98,2.84 16.8,1.97 5.83,-0.87 10.69,-3.32 14.58,-7.27 3.85,-3.96 7.64,-10.49 11.27,-19.53l22.85 -56.83 18.02 7.24 -42.73 106.28 -16.18 -6.5zm222.78 45.92l-34.4 -117.5 20.72 1.59 19.22 70.27c2.08,7.57 3.96,15.42 5.59,23.55 2.17,-5.89 5.12,-12.93 8.87,-21.16l30.7 -67.76 19.88 1.52 -51.96 110.91 -18.61 -1.42zm295.21 -58.87l20.16 -1.93c-0.42,12.06 -4.09,22.23 -10.95,30.42 -6.86,8.18 -16.75,13.8 -29.69,16.77 -16.26,3.77 -30.33,1.72 -42.18,-6.12 -11.84,-7.8 -19.86,-20.79 -24.04,-38.89 -4.31,-18.72 -2.86,-34.37 4.4,-46.92 7.24,-12.58 18.56,-20.62 33.95,-24.17 14.87,-3.44 28.18,-1.18 39.94,6.78 11.77,7.98 19.8,21.15 24.04,39.53 0.24,1.11 0.6,2.82 1.04,5.04l-83.12 19.17c3.55,12.05 9.15,20.65 16.87,25.7 7.71,5.05 16.24,6.53 25.51,4.38 6.92,-1.59 12.42,-4.79 16.45,-9.57 4.06,-4.79 6.58,-11.51 7.6,-20.21zm-68.92 -16.04l62.15 -14.34c-2.99,-9.2 -7.02,-15.66 -12.01,-19.47 -7.66,-5.89 -16.32,-7.74 -25.88,-5.53 -8.68,2 -15.28,6.58 -19.86,13.75 -4.54,7.16 -6,15.69 -4.4,25.59zm259.11 -12.22l-51.06 -102.53 15.61 -7.77 7.24 14.56c1.95,-14.91 10.05,-25.88 24.24,-32.95 6.19,-3.08 12.4,-4.78 18.67,-5.15 6.27,-0.37 11.61,0.62 15.98,2.93 4.35,2.32 8.29,5.7 11.77,10.11 2.24,2.93 5.37,8.4 9.37,16.43l31.35 62.95 -17.39 8.66 -31.03 -62.29c-3.52,-7.08 -6.83,-12.06 -9.91,-14.88 -3.08,-2.82 -6.88,-4.42 -11.36,-4.82 -4.46,-0.37 -9.03,0.6 -13.65,2.89 -7.38,3.68 -12.56,9.18 -15.59,16.56 -3.03,7.35 -1.26,17.6 5.28,30.7l27.86 55.95 -17.39 8.66zm130.82 -248.23l-15.29 -15.92 14.01 -13.45 15.29 15.93 -14.01 13.45zm94.16 98.06l-79.34 -82.61 14.02 -13.46 79.32 82.63 -14 13.45zm131.24 -147.03l-93.25 -66.53 10.13 -14.18 14.28 10.19c-4.03,-8.34 -6.01,-14.82 -5.9,-19.41 0.07,-4.59 1.44,-8.73 4.07,-12.4 3.81,-5.33 9.34,-9.56 16.6,-12.69l10.56 16.03c-4.89,2.29 -8.71,5.37 -11.44,9.2 -2.45,3.44 -3.61,7.27 -3.48,11.47 0.12,4.2 1.6,8.2 4.46,11.99 4.34,5.75 9.86,11.02 16.53,15.77l48.72 34.76 -11.27 15.8z"/>
     </g>
    </g>
    <polygon class="fil1" points="287.36,1203 311.47,1277.68 389.93,1277.52 326.37,1323.52 350.75,1398.1 287.36,1351.85 223.98,1398.1 248.37,1323.52 184.8,1277.52 263.26,1277.68 "/>
    <polygon class="fil1" points="2043.11,1203 2067.22,1277.68 2145.68,1277.52 2082.12,1323.52 2106.5,1398.1 2043.11,1351.85 1979.73,1398.1 2004.12,1323.52 1940.56,1277.52 2019.01,1277.68 "/>
   </g>
  </g>
 </g>
</svg>
