<svg id="Capa_1" enable-background="new 0 0 512 512" height="512" viewBox="0 0 512 512" width="512" xmlns="http://www.w3.org/2000/svg"><g><path d="m124.504 217.155c-5.375-5.559-12.125-9.24-19.504-10.727v-97.178c0-18.371-13.282-33.688-30.745-36.879-3.41-16.981-18.124-30.124-35.706-30.606-10.219-.279-19.879 3.487-27.198 10.606-7.32 7.122-11.351 16.668-11.351 26.879v189.567c0 9.885 2.228 19.835 6.441 28.776l22.592 47.938c1.279 2.714 3.976 4.305 6.789 4.305 1.071 0 2.159-.231 3.192-.718 3.747-1.766 5.353-6.234 3.587-9.981l-22.591-47.939c-3.277-6.954-5.01-14.693-5.01-22.381v-189.567c0-6.126 2.419-11.854 6.812-16.128 4.39-4.272 10.183-6.533 16.326-6.363 12.054.33 21.862 10.7 21.862 23.115v163.31c0 10.016 3.9 19.433 10.983 26.517l61.533 61.533c7.083 7.083 10.983 16.5 10.983 26.517 0 4.142 3.358 7.5 7.5 7.5s7.5-3.358 7.5-7.5c0-14.023-5.461-27.207-15.377-37.123l-61.532-61.534c-4.25-4.25-6.59-9.9-6.59-15.91 0-12.407 10.093-22.5 22.5-22.5 6.176 0 11.948 2.461 16.252 6.931.032.034.065.067.099.101l91.092 91.092c18.416 18.416 28.557 42.9 28.557 68.943v82.5h-151.853c5.931-18.357 4.724-38.24-3.664-56.038l-22.592-47.938c-1.766-3.747-6.235-5.352-9.981-3.587-3.747 1.766-5.353 6.235-3.587 9.981l22.592 47.938c8.1 17.188 7.873 36.793-.625 53.789-1.163 2.325-1.039 5.086.328 7.297s3.781 3.557 6.38 3.557h170.502c4.142 0 7.5-3.358 7.5-7.5v-90c0-30.05-11.702-58.301-32.951-79.549zm-49.504-3.95v-125.165c8.729 3.096 15 11.433 15 21.21v97.188c-5.539 1.129-10.637 3.484-15 6.767z"/><path d="m500.649 52.371c-7.318-7.12-16.989-10.883-27.198-10.606-17.582.482-32.297 13.625-35.706 30.606-17.463 3.192-30.745 18.508-30.745 36.879v97.178c-7.38 1.487-14.13 5.168-19.505 10.728l-91.044 91.044c-21.249 21.249-32.951 49.5-32.951 79.549v90c0 4.142 3.358 7.5 7.5 7.5h170.502c2.599 0 5.013-1.346 6.38-3.557s1.491-4.972.328-7.297c-8.498-16.996-8.725-36.601-.625-53.789l57.974-123.013c4.214-8.941 6.441-18.892 6.441-28.776v-189.567c0-10.211-4.031-19.757-11.351-26.879zm-63.649 35.669v125.162c-4.362-3.281-9.462-5.631-15-6.76v-97.192c0-9.777 6.271-18.114 15-21.21zm60 180.777c0 7.688-1.732 15.427-5.01 22.381l-57.974 123.014c-8.388 17.798-9.595 37.681-3.664 56.038h-151.852v-82.5c0-26.043 10.142-50.527 28.557-68.943l91.092-91.092c.033-.033.066-.067.099-.101 4.305-4.469 10.077-6.931 16.252-6.931 12.407 0 22.5 10.093 22.5 22.5 0 6.01-2.34 11.66-6.59 15.91l-61.533 61.533c-9.916 9.916-15.377 23.1-15.377 37.123 0 4.142 3.358 7.5 7.5 7.5s7.5-3.358 7.5-7.5c0-10.017 3.901-19.434 10.983-26.517l61.534-61.533c7.083-7.082 10.983-16.499 10.983-26.515v-163.31c0-12.415 9.808-22.785 21.862-23.115 6.138-.167 11.937 2.092 16.326 6.363 4.393 4.274 6.812 10.002 6.812 16.128z"/><path d="m249.319 112.24c-1.372-3.336-4.587-5.49-8.202-5.49-3.61.003-6.826 2.164-8.192 5.505-.023.057-.046.113-.067.17l-22.53 59.155c-1.474 3.871.468 8.204 4.339 9.678 3.873 1.477 8.204-.469 9.678-4.339l3.771-9.902h25.845l3.729 9.881c1.134 3.003 3.987 4.854 7.019 4.854.88 0 1.775-.156 2.646-.485 3.875-1.462 5.832-5.79 4.369-9.665l-22.324-59.158c-.026-.069-.053-.136-.081-.204zm-15.489 39.777 7.269-19.085 7.202 19.085z"/><path d="m345.169 114.25v60c0 4.142 3.358 7.5 7.5 7.5h25.282c4.142 0 7.5-3.358 7.5-7.5s-3.358-7.5-7.5-7.5h-17.782v-15h15.917c4.142 0 7.5-3.358 7.5-7.5s-3.358-7.5-7.5-7.5h-15.917v-15h17.782c4.142 0 7.5-3.358 7.5-7.5s-3.358-7.5-7.5-7.5h-25.282c-4.142 0-7.5 3.358-7.5 7.5z"/><path d="m286.446 106.75c-4.142 0-7.5 3.358-7.5 7.5v60c0 4.123 3.328 7.472 7.45 7.5.342.002 5.758.038 10.817.038 2.639 0 5.182-.01 6.854-.039 18.021-.315 31.102-16.085 31.102-37.499 0-22.43-12.751-37.5-31.729-37.5zm33.723 37.5c0 10.7-5.121 22.305-16.363 22.501-2.244.039-6.26.041-9.86.032v-45.033h9.494c12.334 0 16.729 11.623 16.729 22.5z"/><path d="m132.641 181.148c4.064.775 7.997-1.891 8.774-5.959l6.312-33.026 9.466 33.207c.025.086.051.173.079.258 1.186 3.655 4.564 6.116 8.435 6.123 3.843-.007 7.222-2.467 8.407-6.123.028-.085.054-.172.079-.258l9.466-33.206 6.312 33.026c.778 4.069 4.708 6.74 8.774 5.959 4.069-.777 6.736-4.706 5.959-8.774l-11.188-58.537c-.803-3.938-4.166-6.847-8.179-7.073-4.016-.218-7.681 2.286-8.921 6.109-.027.085-.054.171-.079.258l-10.644 37.339-10.644-37.339c-.025-.087-.052-.174-.08-.26-1.241-3.822-4.916-6.334-8.922-6.106-4.012.227-7.375 3.135-8.195 7.163l-11.17 58.446c-.777 4.067 1.89 7.996 5.959 8.773z"/><path d="m316.47 234.143c0-20.619-16.774-37.393-37.393-37.393-7.106 0-13.998 2.013-19.928 5.754-5.931-3.741-12.823-5.754-19.929-5.754-20.619 0-37.393 16.774-37.393 37.395.008 40.191 51.561 68.517 53.756 69.704 1.112.601 2.339.902 3.566.902s2.454-.301 3.566-.902c2.194-1.187 53.747-29.514 53.755-69.706zm-57.322 54.401c-10.793-6.668-42.317-28.375-42.322-54.401 0-12.348 10.045-22.393 22.393-22.393 5.515 0 10.816 2.026 14.926 5.706 2.848 2.55 7.157 2.549 10.005 0 4.109-3.679 9.41-5.706 14.925-5.706 12.348 0 22.393 10.045 22.393 22.392-.003 26.028-31.531 47.737-42.32 54.402z"/><path d="m268.46 91.75c4.142 0 7.5-3.358 7.5-7.5v-15c0-4.136 3.364-7.5 7.5-7.5s7.5 3.364 7.5 7.5v14.857c0 4.142 3.358 7.5 7.5 7.5s7.5-3.358 7.5-7.5v-14.857c0-12.407-10.093-22.5-22.5-22.5-3.469 0-6.757.791-9.695 2.199-1.357-1.358-3.233-2.199-5.305-2.199-4.142 0-7.5 3.358-7.5 7.5v30c0 4.142 3.358 7.5 7.5 7.5z"/><path d="m160.54 91.75c4.142 0 7.5-3.358 7.5-7.5v-15c0-4.136 3.364-7.5 7.5-7.5s7.5 3.364 7.5 7.5v14.857c0 4.142 3.358 7.5 7.5 7.5s7.5-3.358 7.5-7.5v-14.857c0-12.407-10.093-22.5-22.5-22.5-2.629 0-5.153.458-7.5 1.29v-13.79c0-4.142-3.358-7.5-7.5-7.5s-7.5 3.358-7.5 7.5v50c0 4.142 3.358 7.5 7.5 7.5z"/><path d="m228.46 91.75c3.469 0 6.757-.791 9.695-2.199 1.357 1.358 3.233 2.199 5.305 2.199 4.142 0 7.5-3.358 7.5-7.5v-30c0-4.142-3.358-7.5-7.5-7.5-2.072 0-3.948.84-5.305 2.199-2.938-1.408-6.225-2.199-9.695-2.199-12.407 0-22.5 10.093-22.5 22.5s10.093 22.5 22.5 22.5zm0-30c4.136 0 7.5 3.364 7.5 7.5s-3.364 7.5-7.5 7.5-7.5-3.364-7.5-7.5 3.364-7.5 7.5-7.5z"/><path d="m336.46 91.75c3.469 0 6.757-.791 9.695-2.199 1.357 1.358 3.233 2.199 5.305 2.199 4.142 0 7.5-3.358 7.5-7.5v-50c0-4.142-3.358-7.5-7.5-7.5s-7.5 3.358-7.5 7.5v13.79c-2.347-.833-4.871-1.29-7.5-1.29-12.407 0-22.5 10.093-22.5 22.5s10.093 22.5 22.5 22.5zm0-30c4.136 0 7.5 3.364 7.5 7.5s-3.364 7.5-7.5 7.5-7.5-3.364-7.5-7.5 3.364-7.5 7.5-7.5z"/></g></svg>