<?xml version="1.0" encoding="UTF-8"?>
<!DOCTYPE svg PUBLIC "-//W3C//DTD SVG 1.1//EN" "http://www.w3.org/Graphics/SVG/1.1/DTD/svg11.dtd">
<!-- Creator: CorelDRAW 2020 (64-Bit) -->
<svg xmlns="http://www.w3.org/2000/svg" xml:space="preserve" width="10.5833mm" height="10.5834mm" version="1.1" style="shape-rendering:geometricPrecision; text-rendering:geometricPrecision; image-rendering:optimizeQuality; fill-rule:evenodd; clip-rule:evenodd"
viewBox="0 0 63.17 63.17"
 xmlns:xlink="http://www.w3.org/1999/xlink"
 xmlns:xodm="http://www.corel.com/coreldraw/odm/2003">
 <defs>
  <style type="text/css">
   <![CDATA[
    .fil1 {fill:#FEFEFE;fill-rule:nonzero}
    .fil2 {fill:#D3E6F1;fill-rule:nonzero}
    .fil3 {fill:#B6D1E6;fill-rule:nonzero}
    .fil0 {fill:url(#id0);fill-rule:nonzero}
   ]]>
  </style>
  <linearGradient id="id0" gradientUnits="userSpaceOnUse" x1="31.58" y1="0" x2="31.58" y2="62.94">
   <stop offset="0" style="stop-opacity:1; stop-color:#45BEE9"/>
   <stop offset="1" style="stop-opacity:1; stop-color:#2CA9DE"/>
  </linearGradient>
 </defs>
 <g id="Слой_x0020_1">
  <metadata id="CorelCorpID_0Corel-Layer"/>
  <g id="Telegram.cdr">
   <g>
    <path class="fil0" d="M63.17 31.58c0,17.44 -14.14,31.58 -31.58,31.58 -17.44,0 -31.58,-14.14 -31.58,-31.58 0,-17.44 14.14,-31.58 31.58,-31.58 17.44,0 31.58,14.14 31.58,31.58z"/>
    <g>
     <path class="fil1" d="M46.95 18.17l-5.64 28.44c0,0 -0.79,1.97 -2.96,1.03l-13.02 -9.98 -4.73 -2.29 -7.97 -2.68c0,0 -1.22,-0.43 -1.34,-1.38 -0.12,-0.95 1.38,-1.46 1.38,-1.46l31.68 -12.43c0,0 2.6,-1.14 2.6,0.75z"/>
     <path class="fil2" d="M24.33 46.29c0,0 -0.38,-0.04 -0.85,-1.54 -0.47,-1.5 -2.88,-9.39 -2.88,-9.39l19.13 -12.15c0,0 1.1,-0.67 1.07,0 0,0 0.2,0.12 -0.39,0.67 -0.59,0.55 -15.03,13.53 -15.03,13.53l-1.04 8.87z"/>
     <path class="fil3" d="M30.32 41.48l-5.15 4.69c0,0 -0.4,0.3 -0.84,0.11l0.99 -8.72 5.01 3.91z"/>
    </g>
   </g>
  </g>
 </g>
</svg>
