<?xml version="1.0" encoding="UTF-8"?>
<!DOCTYPE svg PUBLIC "-//W3C//DTD SVG 1.1//EN" "http://www.w3.org/Graphics/SVG/1.1/DTD/svg11.dtd">
<!-- Creator: CorelDRAW 2020 (64-Bit) -->
<svg xmlns="http://www.w3.org/2000/svg" xml:space="preserve" width="49.2814mm" height="49.2814mm" version="1.1" style="shape-rendering:geometricPrecision; text-rendering:geometricPrecision; image-rendering:optimizeQuality; fill-rule:evenodd; clip-rule:evenodd"
viewBox="0 0 2586.4 2586.4"
 xmlns:xlink="http://www.w3.org/1999/xlink"
 xmlns:xodm="http://www.corel.com/coreldraw/odm/2003">
 <defs>
  <style type="text/css">
   <![CDATA[
    .fil1 {fill:#FEFEFE;fill-rule:nonzero}
    .fil0 {fill:#5076A6;fill-rule:nonzero}
   ]]>
  </style>
 </defs>
 <g id="Слой_x0020_1">
  <metadata id="CorelCorpID_0Corel-Layer"/>
  <g id="VK.cdr">
   <path class="fil0" d="M398.55 0l1789.32 0c220.1,0 398.54,178.43 398.54,398.54l0 1789.32c0,220.1 -178.44,398.54 -398.54,398.54l-1789.32 0c-220.11,0 -398.55,-178.45 -398.55,-398.54l0 -1789.32c0,-220.11 178.44,-398.54 398.55,-398.54z"/>
   <path class="fil1" d="M1271.5 1810.56l105.8 0c0,0 31.95,-3.52 48.29,-21.1 15.01,-16.16 14.53,-46.48 14.53,-46.48 0,0 -2.07,-141.95 63.8,-162.86 64.97,-20.6 148.37,137.2 236.77,197.88 66.85,45.91 117.64,35.86 117.64,35.86l236.38 -3.3c0,0 123.65,-7.63 65.02,-104.85 -4.8,-7.94 -34.16,-71.91 -175.76,-203.35 -148.23,-137.57 -128.36,-115.31 50.18,-353.28 108.73,-144.92 152.19,-233.39 138.61,-271.29 -12.94,-36.09 -92.91,-26.56 -92.91,-26.56l-266.15 1.65c0,0 -19.74,-2.69 -34.37,6.06 -14.31,8.56 -23.49,28.56 -23.49,28.56 0,0 -42.14,112.13 -98.3,207.52 -118.51,201.23 -165.91,211.88 -185.28,199.37 -45.07,-29.13 -33.8,-116.98 -33.8,-179.42 0,-195.02 29.58,-276.34 -57.61,-297.39 -28.93,-6.98 -50.24,-11.6 -124.23,-12.36 -94.97,-0.96 -175.33,0.29 -220.85,22.59 -30.28,14.83 -53.64,47.86 -39.41,49.77 17.6,2.34 57.43,10.75 78.55,39.48 27.29,37.12 26.33,120.44 26.33,120.44 0,0 15.68,229.58 -36.6,258.09 -35.87,19.56 -85.09,-20.37 -190.75,-202.94 -54.13,-93.52 -95.01,-196.9 -95.01,-196.9 0,0 -7.87,-19.32 -21.93,-29.66 -17.05,-12.53 -40.88,-16.5 -40.88,-16.5l-252.92 1.65c0,0 -37.96,1.06 -51.9,17.57 -12.41,14.7 -0.99,45.06 -0.99,45.06 0,0 197.99,463.25 422.2,696.69 205.6,214.06 439.03,200.02 439.03,200.02z"/>
  </g>
 </g>
</svg>
