<?xml version="1.0" encoding="UTF-8"?>
<!DOCTYPE svg PUBLIC "-//W3C//DTD SVG 1.1//EN" "http://www.w3.org/Graphics/SVG/1.1/DTD/svg11.dtd">
<!-- Creator: CorelDRAW 2020 (64-Bit) -->
<svg xmlns="http://www.w3.org/2000/svg" xml:space="preserve" width="10.5834mm" height="10.5834mm" version="1.1" style="shape-rendering:geometricPrecision; text-rendering:geometricPrecision; image-rendering:optimizeQuality; fill-rule:evenodd; clip-rule:evenodd"
viewBox="0 0 62.81 62.81"
 xmlns:xlink="http://www.w3.org/1999/xlink"
 xmlns:xodm="http://www.corel.com/coreldraw/odm/2003">
 <defs>
  <style type="text/css">
   <![CDATA[
    .fil1 {fill:white;fill-rule:nonzero}
    .fil0 {fill:url(#id0);fill-rule:nonzero}
   ]]>
  </style>
  <linearGradient id="id0" gradientUnits="userSpaceOnUse" x1="31.41" y1="0" x2="31.41" y2="62.81">
   <stop offset="0" style="stop-opacity:1; stop-color:#60FD7C"/>
   <stop offset="1" style="stop-opacity:1; stop-color:#2AB826"/>
  </linearGradient>
 </defs>
 <g id="Слой_x0020_1">
  <metadata id="CorelCorpID_0Corel-Layer"/>
  <g id="Whatsapp.cdr">
   <g>
    <g>
     <g>
      <path class="fil0" d="M62.81 46.87c0,0.34 -0.01,1.09 -0.03,1.67 -0.05,1.41 -0.16,3.23 -0.33,4.06 -0.25,1.25 -0.64,2.42 -1.14,3.4 -0.59,1.16 -1.35,2.19 -2.24,3.09 -0.89,0.89 -1.93,1.64 -3.09,2.23 -0.98,0.5 -2.17,0.88 -3.42,1.14 -0.82,0.17 -2.63,0.28 -4.03,0.33 -0.58,0.02 -1.32,0.03 -1.67,0.03l-30.93 -0c-0.34,0 -1.09,-0.01 -1.67,-0.03 -1.41,-0.05 -3.23,-0.16 -4.06,-0.33 -1.25,-0.25 -2.42,-0.64 -3.4,-1.14 -1.16,-0.59 -2.19,-1.35 -3.09,-2.24 -0.89,-0.89 -1.64,-1.93 -2.23,-3.09 -0.5,-0.98 -0.89,-2.17 -1.14,-3.42 -0.17,-0.82 -0.27,-2.63 -0.33,-4.03 -0.02,-0.58 -0.03,-1.32 -0.03,-1.66l0.01 -30.93c0,-0.34 0.01,-1.09 0.03,-1.67 0.05,-1.41 0.16,-3.23 0.33,-4.06 0.25,-1.25 0.64,-2.42 1.14,-3.4 0.59,-1.16 1.35,-2.19 2.24,-3.09 0.89,-0.89 1.93,-1.64 3.09,-2.23 0.98,-0.5 2.17,-0.88 3.42,-1.14 0.82,-0.17 2.63,-0.28 4.03,-0.33 0.58,-0.02 1.32,-0.03 1.67,-0.03l30.93 0.01c0.34,0 1.09,0.01 1.67,0.03 1.41,0.05 3.23,0.16 4.06,0.33 1.25,0.25 2.42,0.64 3.4,1.14 1.16,0.59 2.19,1.35 3.09,2.24 0.89,0.89 1.64,1.93 2.23,3.09 0.5,0.98 0.88,2.17 1.14,3.42 0.17,0.82 0.28,2.63 0.32,4.03 0.02,0.58 0.03,1.32 0.03,1.67l-0.01 30.93z"/>
     </g>
    </g>
   </g>
   <g>
    <g>
     <g>
      <path class="fil1" d="M48.05 14.86c-4.25,-4.26 -9.91,-6.6 -15.93,-6.6 -12.41,0 -22.52,10.1 -22.52,22.52 -0,3.97 1.04,7.84 3.01,11.26l-3.2 11.67 11.94 -3.13c3.29,1.79 6.99,2.74 10.76,2.74l0.01 0c0,0 -0,0 0,0 12.41,0 22.52,-10.1 22.52,-22.52 0,-6.02 -2.34,-11.67 -6.59,-15.93zm-15.93 34.64l0 0 -0.01 0c-3.36,-0 -6.65,-0.9 -9.53,-2.61l-0.68 -0.41 -7.09 1.86 1.89 -6.91 -0.45 -0.71c-1.87,-2.98 -2.86,-6.42 -2.86,-9.96 0,-10.32 8.4,-18.71 18.73,-18.71 5,0 9.7,1.95 13.23,5.49 3.53,3.54 5.48,8.24 5.48,13.24 -0,10.32 -8.4,18.72 -18.72,18.72zm10.27 -14.02l0 0c-0.56,-0.28 -3.33,-1.64 -3.85,-1.83 -0.52,-0.19 -0.89,-0.28 -1.27,0.28 -0.38,0.56 -1.45,1.83 -1.78,2.21 -0.33,0.38 -0.66,0.42 -1.22,0.14 -0.56,-0.28 -2.38,-0.88 -4.53,-2.79 -1.67,-1.49 -2.8,-3.33 -3.13,-3.9 -0.33,-0.56 -0.04,-0.87 0.25,-1.15 0.25,-0.25 0.56,-0.66 0.84,-0.99 0.28,-0.33 0.38,-0.56 0.56,-0.94 0.19,-0.38 0.09,-0.7 -0.05,-0.99 -0.14,-0.28 -1.27,-3.05 -1.74,-4.18 -0.46,-1.1 -0.92,-0.95 -1.27,-0.97 -0.33,-0.02 -0.7,-0.02 -1.08,-0.02 -0.38,0 -0.99,0.14 -1.5,0.7 -0.52,0.56 -1.97,1.92 -1.97,4.69 0,2.77 2.02,5.44 2.3,5.82 0.28,0.38 3.97,6.06 9.61,8.5 1.34,0.58 2.39,0.93 3.21,1.19 1.35,0.43 2.57,0.37 3.54,0.22 1.08,-0.16 3.33,-1.36 3.8,-2.68 0.47,-1.31 0.47,-2.44 0.33,-2.68 -0.14,-0.23 -0.52,-0.38 -1.08,-0.66z"/>
     </g>
    </g>
   </g>
  </g>
 </g>
</svg>
